<?xml version="1.0" standalone="no"?>
<!DOCTYPE svg PUBLIC "-//W3C//DTD SVG 20010904//EN"
 "http://www.w3.org/TR/2001/REC-SVG-20010904/DTD/svg10.dtd">
<svg version="1.0" xmlns="http://www.w3.org/2000/svg"
 width="996.000000pt" height="282.000000pt" viewBox="0 0 996.000000 282.000000"
 preserveAspectRatio="xMidYMid meet">

<g transform="translate(0.000000,282.000000) scale(0.100000,-0.100000)"
fill="#000000" stroke="none">
<path d="M705 2791 c-38 -16 -46 -38 -76 -203 -16 -89 -32 -173 -34 -185 l-5
-23 -265 0 -265 0 0 -975 0 -975 903 0 904 0 28 -167 c33 -191 46 -217 110
-217 64 0 77 26 110 217 l28 167 269 0 268 0 0 975 0 975 -895 0 -895 0 -5 23
c-2 12 -18 96 -35 186 -20 115 -35 170 -47 183 -22 21 -70 31 -98 19z m1795
-1386 l0 -795 -1130 0 -1130 0 0 795 0 795 1130 0 1130 0 0 -795z"/>
<path d="M910 1582 c-76 -42 -124 -174 -101 -283 41 -197 206 -238 288 -71 90
184 -42 433 -187 354z"/>
<path d="M1620 1582 c-76 -42 -124 -174 -101 -283 41 -197 206 -238 288 -71
90 184 -42 433 -187 354z"/>
<path d="M3276 1883 c-8 -27 -105 -338 -216 -693 -110 -355 -209 -671 -220
-703 l-19 -57 162 2 162 3 39 148 39 147 207 0 207 0 39 -147 39 -148 164 -3
c129 -2 162 0 159 10 -3 7 -99 310 -213 673 -114 363 -218 695 -231 738 l-25
77 -139 0 -138 0 -16 -47z m223 -626 c34 -131 65 -245 68 -253 4 -12 -19 -14
-137 -14 -109 0 -141 3 -138 13 3 6 34 123 69 259 35 136 67 244 70 240 4 -4
35 -114 68 -245z"/>
<path d="M4080 1180 l0 -750 155 0 155 0 0 750 0 750 -155 0 -155 0 0 -750z"/>
<path d="M4855 1433 c-108 -39 -172 -117 -206 -253 -19 -74 -21 -103 -17 -279
4 -167 8 -204 26 -254 58 -158 177 -237 338 -224 54 4 66 2 81 -15 10 -11 48
-47 85 -80 l67 -60 41 34 c22 18 40 38 40 43 0 6 -32 39 -70 74 l-70 63 40 45
c53 60 79 134 91 262 12 114 5 318 -13 391 -28 114 -85 193 -172 237 -68 34
-189 42 -261 16z m202 -112 c90 -41 123 -145 123 -386 0 -241 -33 -345 -123
-386 -86 -39 -197 -12 -245 60 -43 66 -52 121 -52 326 0 205 9 260 52 326 48
72 159 99 245 60z"/>
<path d="M7840 1270 l0 -90 -55 0 -55 0 0 -50 0 -50 54 0 55 0 3 -277 c3 -243
5 -282 21 -310 31 -57 95 -83 171 -69 36 7 36 7 36 59 l0 53 -32 -4 c-19 -2
-42 3 -53 12 -19 14 -20 28 -23 275 l-3 261 56 0 55 0 0 50 0 50 -55 0 -55 0
0 90 0 90 -60 0 -60 0 0 -90z"/>
<path d="M6471 1178 c-61 -17 -117 -64 -145 -120 -40 -80 -37 -88 32 -88 58 0
58 0 75 39 22 50 72 75 134 68 24 -2 53 -13 63 -22 24 -21 40 -75 40 -131 l0
-41 -97 -6 c-57 -3 -114 -12 -135 -21 -53 -23 -108 -74 -129 -121 -24 -53 -24
-147 0 -200 57 -125 237 -155 331 -55 l28 29 6 -39 6 -40 66 0 c64 0 66 1 59
23 -4 12 -11 148 -14 302 -7 311 -10 326 -74 382 -20 18 -53 37 -74 42 -46 13
-126 13 -172 -1z m199 -477 l0 -89 -39 -35 c-43 -39 -91 -53 -145 -43 -43 8
-66 35 -73 84 -15 109 56 169 200 171 l57 1 0 -89z"/>
<path d="M7262 1170 c-23 -10 -53 -31 -67 -46 l-25 -27 0 42 0 41 -60 0 -60 0
0 -375 0 -375 60 0 60 0 0 265 c0 289 1 294 58 349 64 60 169 38 191 -41 7
-22 11 -149 11 -305 l0 -268 60 0 60 0 0 275 c0 288 -7 352 -43 407 -47 71
-159 97 -245 58z"/>
<path d="M9233 1171 c-23 -11 -51 -29 -62 -40 l-21 -21 0 35 0 35 -60 0 -60 0
0 -375 0 -375 60 0 60 0 0 278 c0 260 1 279 20 310 39 64 144 80 196 31 13
-12 28 -39 34 -58 5 -20 10 -154 10 -298 l0 -263 60 0 60 0 0 253 c0 146 5
268 11 290 5 21 23 52 39 70 25 29 34 32 84 32 46 0 60 -4 81 -26 15 -14 30
-43 35 -65 5 -21 10 -155 10 -296 l0 -258 61 0 60 0 -3 298 -3 297 -28 57
c-33 68 -75 97 -149 105 -74 7 -132 -11 -183 -58 l-43 -40 -23 32 c-46 64
-161 88 -246 50z"/>
<path d="M5552 883 c3 -298 3 -298 29 -354 32 -68 79 -101 154 -107 61 -5 116
10 163 45 l32 24 0 -30 0 -31 60 0 60 0 0 375 0 375 -60 0 -60 0 0 -274 c0
-267 0 -274 -23 -307 -45 -67 -146 -91 -192 -45 -39 39 -45 85 -45 364 l0 262
-61 0 -60 0 3 -297z"/>
<path d="M8282 883 c3 -298 3 -298 29 -354 32 -68 79 -101 154 -107 61 -5 116
10 163 45 l32 24 0 -30 0 -31 60 0 60 0 0 375 0 375 -60 0 -60 0 0 -274 c0
-267 0 -274 -23 -307 -45 -67 -146 -91 -192 -45 -39 39 -45 85 -45 364 l0 262
-61 0 -60 0 3 -297z"/>
</g>
</svg>
